<?xml version="1.0" encoding="UTF-8"?>
<svg width="214px" height="38px" viewBox="0 0 214 38" version="1.1" xmlns="http://www.w3.org/2000/svg" xmlns:xlink="http://www.w3.org/1999/xlink" xmlns:sketch="http://www.bohemiancoding.com/sketch/ns">
    <!-- Generator: Sketch 3.4.2 (15855) - http://www.bohemiancoding.com/sketch -->
    <title>sectionio_logo</title>
    <desc>Created with Sketch.</desc>
    <defs></defs>
    <g id="Page-1" stroke="none" stroke-width="1" fill="none" fill-rule="evenodd" sketch:type="MSPage">
        <g id="sectionio_logo" sketch:type="MSLayerGroup" fill="#005FFF">
            <g id="Group" transform="translate(0.000000, 9.000000)" sketch:type="MSShapeGroup">
                <path d="M16.7,25.9 C15,27.6 12.4,28.3 9.5,28.3 C6.8,28.3 4.5,27.5 2.7,25.9 C1.5,24.7 0.5,23 0.5,21 L5.2,21 C5.2,21.9 5.7,22.9 6.3,23.5 C7.1,24.1 8,24.4 9.5,24.4 C11.2,24.4 13.8,24 13.8,21.7 C13.8,20.5 13,19.7 11.7,19.5 C9.8,19.2 7.7,19.1 5.9,18.7 C3,18.1 1.1,15.8 1.1,13.1 C1.1,11 2,9.5 3.2,8.4 C4.7,7.1 7,6.3 9.6,6.3 C12.1,6.3 14.6,7.1 16.2,8.8 C17.3,10 18.1,11.6 18.1,13.1 L13.3,13.1 C13.3,12.3 12.9,11.6 12.5,11.1 C11.9,10.5 10.8,10.1 9.8,10.1 C9.1,10.1 8.4,10.1 7.6,10.4 C6.7,10.8 6,11.5 6,12.6 C6,14.1 7.3,14.5 8.4,14.7 C10.3,14.9 10.8,15 12.9,15.3 C16.2,15.8 18.6,17.9 18.6,21.2 C18.5,23.4 17.8,24.8 16.7,25.9 L16.7,25.9 Z" id="Shape"></path>
                <path d="M40.2,18.9 L26.2,18.9 C26.2,20.5 26.7,22 27.7,23 C28.4,23.7 29.4,24.3 30.8,24.3 C32.3,24.3 33.1,24 33.9,23.3 C34.3,22.9 34.7,22.3 34.9,21.5 L39.7,21.5 C39.6,22.7 38.7,24.4 37.9,25.4 C36.1,27.5 33.5,28.3 30.8,28.3 C27.9,28.3 25.8,27.3 24.2,25.7 C22.1,23.7 21,20.7 21,17.3 C21,14 22,11 24,8.9 C25.6,7.3 27.8,6.2 30.7,6.2 C33.8,6.2 36.6,7.4 38.4,10.1 C39.9,12.4 40.3,14.8 40.2,17.4 L40.2,18.9 L40.2,18.9 Z M33.9,11.6 C33.2,10.9 32.2,10.4 30.7,10.4 C29.2,10.4 27.9,11 27.2,12 C26.5,12.9 26.2,13.9 26.1,15.3 L35.2,15.3 C35.1,13.7 34.7,12.5 33.9,11.6 L33.9,11.6 Z" id="Shape"></path>
                <path d="M59.4,25 C57.9,26.8 55.4,28.3 52.2,28.3 C49,28.3 46.4,26.7 45,25 C43.4,23 42.7,20.4 42.7,17.3 C42.7,14.2 43.4,11.6 45,9.6 C46.5,7.8 49.1,6.3 52.3,6.3 C55.5,6.3 58,7.8 59.5,9.6 C60.5,10.9 61,12.5 61.1,14.2 L56.1,14.2 C56.1,13.4 55.8,12.8 55.5,12.3 C54.9,11.4 53.8,10.7 52.3,10.7 C50.9,10.7 49.9,11.3 49.2,12 C48,13.3 47.8,15.3 47.8,17.3 C47.8,19.3 48,21.3 49.2,22.6 C49.9,23.3 50.9,23.9 52.3,23.9 C53.8,23.9 54.9,23.3 55.5,22.3 C55.8,21.8 56.1,21.1 56.1,20.4 L61.1,20.4 C61,22.1 60.4,23.7 59.4,25 L59.4,25 Z" id="Shape"></path>
                <path d="M72.1,28.1 C67.9,28.1 65.8,25.7 65.8,21.6 L65.8,11 L62,11 L62,6.8 L65.8,6.8 L65.8,1.5 L70.8,0.2 L70.8,6.8 L76.1,6.8 L76.1,11 L70.8,11 L70.8,21.2 C70.8,22.8 71.5,23.5 73.1,23.5 C74.1,23.5 75,23.5 76.4,23.3 L76.4,27.5 C75,27.9 73.6,28.1 72.1,28.1 L72.1,28.1 Z" id="Shape"></path>
                <path d="M79.9,27.8 L79.9,6.8 L85,6.8 L85,27.8 L79.9,27.8 L79.9,27.8 Z" id="Shape"></path>
                <path d="M105.3,25.1 C103.8,26.9 101.1,28.4 98,28.4 C94.9,28.4 92.1,26.9 90.7,25.1 C89.1,23.1 88.2,20.9 88.2,17.4 C88.2,13.9 89.1,11.6 90.7,9.7 C92.2,7.9 94.9,6.4 98,6.4 C101.1,6.4 103.9,7.9 105.3,9.7 C106.9,11.7 107.8,13.9 107.8,17.4 C107.8,20.9 106.8,23.1 105.3,25.1 L105.3,25.1 Z M101.1,12.1 C100.4,11.4 99.3,10.8 97.9,10.8 C96.5,10.8 95.4,11.4 94.7,12.1 C93.5,13.4 93.2,15.4 93.2,17.4 C93.2,19.4 93.5,21.4 94.7,22.7 C95.4,23.4 96.5,24 97.9,24 C99.3,24 100.4,23.4 101.1,22.7 C102.3,21.4 102.6,19.4 102.6,17.4 C102.6,15.4 102.3,13.4 101.1,12.1 L101.1,12.1 Z" id="Shape"></path>
                <path d="M123.6,27.8 L123.6,15 C123.6,12.5 122.8,11 120.1,11 C118.3,11 117.2,12.1 116.5,13.7 C115.8,15.4 115.8,17.5 115.8,19.3 L115.8,27.9 L110.8,27.9 L110.8,6.9 L115,6.9 L115.4,9.6 C116.7,7.4 119.2,6.4 121.6,6.4 C126.1,6.4 128.7,9.5 128.7,13.9 L128.7,27.9 L123.6,27.9 L123.6,27.8 Z" id="Shape"></path>
                <path d="M142.9,27.8 L142.9,6.8 L148,6.8 L148,27.8 L142.9,27.8 L142.9,27.8 Z" id="Shape"></path>
                <path d="M168.2,25.1 C166.7,26.9 164,28.4 160.9,28.4 C157.7,28.4 155,26.9 153.6,25.1 C152,23.1 151.1,20.9 151.1,17.4 C151.1,13.9 152,11.6 153.6,9.7 C155.1,7.9 157.8,6.4 160.9,6.4 C164.1,6.4 166.8,7.9 168.2,9.7 C169.8,11.7 170.7,13.9 170.7,17.4 C170.7,20.9 169.8,23.1 168.2,25.1 L168.2,25.1 Z M164.1,12.1 C163.4,11.4 162.3,10.8 160.9,10.8 C159.5,10.8 158.4,11.4 157.7,12.1 C156.5,13.4 156.2,15.4 156.2,17.4 C156.2,19.4 156.5,21.4 157.7,22.7 C158.4,23.4 159.5,24 160.9,24 C162.3,24 163.4,23.4 164.1,22.7 C165.3,21.4 165.6,19.4 165.6,17.4 C165.6,15.4 165.3,13.4 164.1,12.1 L164.1,12.1 Z" id="Shape"></path>
            </g>
            <g id="Group" transform="translate(79.000000, 7.000000)" sketch:type="MSShapeGroup">
                <path d="M3.3,0.4 C1.7,0.4 0.4,1.7 0.4,3.3 C0.4,4.9 1.7,6.2 3.3,6.2 C4.9,6.2 6.2,4.9 6.2,3.3 C6.2,1.7 4.9,0.4 3.3,0.4 L3.3,0.4 Z" id="Shape"></path>
                <circle id="Oval" cx="66.4" cy="3.3" r="2.9"></circle>
                <circle id="Oval" cx="56.7" cy="27.2" r="2.9"></circle>
            </g>
            <path d="M210.9,8.6 L197.3,0.8 C196.9,0.6 196.3,0.6 195.9,0.8 L182.3,8.6 C181.6,9 181.4,9.8 181.8,10.5 C182.2,11.2 183,11.4 183.7,11 L196.6,3.6 L207.4,9.8 L198.2,15 C197.8,14.7 197.2,14.5 196.6,14.5 C195.1,14.5 193.8,15.7 193.8,17.3 C193.8,18.7 194.8,19.8 196.1,20 L196.1,20 L196.3,20 L196.4,20 L196.5,20 L196.5,20 L196.7,20 C198.1,19.9 199.2,18.8 199.3,17.4 L210.8,10.9 C211.2,10.7 211.5,10.2 211.5,9.7 C211.6,9.3 211.3,8.8 210.9,8.6 L210.9,8.6 Z" id="Shape" sketch:type="MSShapeGroup"></path>
            <path d="M195.6,34.6 L183.4,27.7 L183.4,15.9 L188.6,18.9 L188.6,21.9 C187.9,22.3 187.4,23 187.2,23.9 L187.2,24.3 C187.2,25.8 188.4,27 189.8,27.1 L189.9,27.1 C191.4,27.1 192.7,25.9 192.7,24.3 C192.7,23.3 192.1,22.4 191.3,21.9 L191.3,18.1 C191.3,17.1 190.5,16.8 190.5,16.8 L189.3,16.1 L189.3,16.1 L182.7,12.4 C182.3,12.2 181.7,12.2 181.3,12.4 C180.9,12.6 180.6,13.1 180.6,13.6 L180.6,28.6 C180.6,29.1 180.9,29.6 181.3,29.8 L194.2,37.1 C194.4,37.2 194.7,37.3 194.9,37.3 C195.4,37.3 195.9,37 196.1,36.6 C196.5,35.8 196.3,35 195.6,34.6 L195.6,34.6 Z" id="Shape" sketch:type="MSShapeGroup"></path>
            <path d="M212,12.2 C211.2,12.2 210.6,12.8 210.6,13.6 L210.6,27.8 L200.5,33.5 L200.5,27.8 L202.7,26.5 L202.7,26.5 C202.8,26.5 202.9,26.6 203,26.6 L203,26.6 C203.1,26.6 203.2,26.7 203.2,26.7 L203.3,26.7 L203.5,26.7 L203.6,26.7 L203.9,26.7 L204.2,26.7 L204.3,26.7 L204.5,26.7 L204.6,26.7 C204.7,26.7 204.7,26.7 204.8,26.6 L204.9,26.6 C205,26.6 205,26.5 205.1,26.5 L205.1,26.5 C205.2,26.5 205.2,26.4 205.3,26.4 L205.3,26.4 C205.4,26.4 205.4,26.3 205.5,26.3 L205.5,26.3 C205.6,26.2 205.6,26.2 205.7,26.1 L205.7,26.1 C205.8,26 205.8,26 205.9,25.9 L205.9,25.9 L206,25.8 C206.4,25.3 206.6,24.7 206.6,24.1 C206.6,23.7 206.5,23.4 206.4,23 C206.4,22.9 206.3,22.8 206.2,22.7 C206.2,22.7 206.2,22.7 206.2,22.6 C206.1,22.5 206.1,22.4 206,22.3 L206,22.3 C205.9,22.2 205.8,22.1 205.8,22 C205.8,22 205.8,22 205.7,21.9 C205.6,21.8 205.5,21.7 205.4,21.7 L205.4,21.7 C205.3,21.6 205.2,21.6 205.1,21.5 L205,21.5 C204.9,21.5 204.8,21.4 204.7,21.4 L204.7,21.4 C204.6,21.4 204.5,21.3 204.3,21.3 L204.2,21.3 L203.8,21.3 C202.3,21.3 201,22.5 201,24.1 L201,24.2 L198.2,25.8 C197.8,26 197.5,26.5 197.5,27 L197.5,35.9 C197.5,36.4 197.8,36.9 198.2,37.1 C198.4,37.2 198.7,37.3 198.9,37.3 C199.1,37.3 199.4,37.2 199.6,37.1 L212.5,29.8 C212.9,29.6 213.2,29.1 213.2,28.6 L213.2,13.6 C213.4,12.8 212.8,12.2 212,12.2 L212,12.2 Z" id="Shape" sketch:type="MSShapeGroup"></path>
        </g>
    </g>
</svg>