<?xml version="1.0" encoding="UTF-8"?>
<svg width="34px" height="38px" viewBox="0 0 34 38" version="1.1" xmlns="http://www.w3.org/2000/svg" xmlns:xlink="http://www.w3.org/1999/xlink" xmlns:sketch="http://www.bohemiancoding.com/sketch/ns">
    <!-- Generator: Sketch 3.4.2 (15855) - http://www.bohemiancoding.com/sketch -->
    <title>sectionio_logo</title>
    <desc>Created with Sketch.</desc>
    <defs></defs>
    <g id="Page-1" stroke="none" stroke-width="1" fill="none" fill-rule="evenodd" sketch:type="MSPage">
        <g id="sectionio_logo" sketch:type="MSLayerGroup" fill="#005FFF">
            <path d="M30.9,8.6 L17.3,0.8 C16.9,0.6 16.3,0.6 15.9,0.8 L2.3,8.6 C1.6,9 1.4,9.8 1.8,10.5 C2.2,11.2 3,11.4 3.7,11 L16.6,3.6 L27.4,9.8 L18.2,15 C17.8,14.7 17.2,14.5 16.6,14.5 C15.1,14.5 13.8,15.7 13.8,17.3 C13.8,18.7 14.8,19.8 16.1,20 L16.1,20 L16.3,20 L16.4,20 L16.5,20 L16.5,20 L16.7,20 C18.1,19.9 19.2,18.8 19.3,17.4 L30.8,10.9 C31.2,10.7 31.5,10.2 31.5,9.7 C31.6,9.3 31.3,8.8 30.9,8.6 L30.9,8.6 Z" id="Shape" sketch:type="MSShapeGroup"></path>
            <path d="M15.6,34.6 L3.4,27.7 L3.4,15.9 L8.6,18.9 L8.6,21.9 C7.9,22.3 7.4,23 7.2,23.9 L7.2,24.3 C7.2,25.8 8.4,27 9.8,27.1 L9.9,27.1 C11.4,27.1 12.7,25.9 12.7,24.3 C12.7,23.3 12.1,22.4 11.3,21.9 L11.3,18.1 C11.3,17.1 10.5,16.8 10.5,16.8 L9.3,16.1 L9.3,16.1 L2.7,12.4 C2.3,12.2 1.7,12.2 1.3,12.4 C0.9,12.6 0.6,13.1 0.6,13.6 L0.6,28.6 C0.6,29.1 0.9,29.6 1.3,29.8 L14.2,37.1 C14.4,37.2 14.7,37.3 14.9,37.3 C15.4,37.3 15.9,37 16.1,36.6 C16.5,35.8 16.3,35 15.6,34.6 L15.6,34.6 Z" id="Shape" sketch:type="MSShapeGroup"></path>
            <path d="M32,12.2 C31.2,12.2 30.6,12.8 30.6,13.6 L30.6,27.8 L20.5,33.5 L20.5,27.8 L22.7,26.5 L22.7,26.5 C22.8,26.5 22.9,26.6 23,26.6 L23,26.6 C23.1,26.6 23.2,26.7 23.2,26.7 L23.3,26.7 L23.5,26.7 L23.6,26.7 L23.9,26.7 L24.2,26.7 L24.3,26.7 L24.5,26.7 L24.6,26.7 C24.7,26.7 24.7,26.7 24.8,26.6 L24.9,26.6 C25,26.6 25,26.5 25.1,26.5 L25.1,26.5 C25.2,26.5 25.2,26.4 25.3,26.4 L25.3,26.4 C25.4,26.4 25.4,26.3 25.5,26.3 L25.5,26.3 C25.6,26.2 25.6,26.2 25.7,26.1 L25.7,26.1 C25.8,26 25.8,26 25.9,25.9 L25.9,25.9 L26,25.8 C26.4,25.3 26.6,24.7 26.6,24.1 C26.6,23.7 26.5,23.4 26.4,23 C26.4,22.9 26.3,22.8 26.2,22.7 C26.2,22.7 26.2,22.7 26.2,22.6 C26.1,22.5 26.1,22.4 26,22.3 L26,22.3 C25.9,22.2 25.8,22.1 25.8,22 C25.8,22 25.8,22 25.7,21.9 C25.6,21.8 25.5,21.7 25.4,21.7 L25.4,21.7 C25.3,21.6 25.2,21.6 25.1,21.5 L25,21.5 C24.9,21.5 24.8,21.4 24.7,21.4 L24.7,21.4 C24.6,21.4 24.5,21.3 24.3,21.3 L24.2,21.3 L23.8,21.3 C22.3,21.3 21,22.5 21,24.1 L21,24.2 L18.2,25.8 C17.8,26 17.5,26.5 17.5,27 L17.5,35.9 C17.5,36.4 17.8,36.9 18.2,37.1 C18.4,37.2 18.7,37.3 18.9,37.3 C19.1,37.3 19.4,37.2 19.6,37.1 L32.5,29.8 C32.9,29.6 33.2,29.1 33.2,28.6 L33.2,13.6 C33.4,12.8 32.8,12.2 32,12.2 L32,12.2 Z" id="Shape" sketch:type="MSShapeGroup"></path>
        </g>
    </g>
</svg>
